<svg width="26.458mm" height="26.458mm" shape-rendering="crispEdges" version="1.1" viewBox="0 0 26.458 26.458" xmlns="http://www.w3.org/2000/svg">
 <title>TBarCode - 11.15.0.16817</title>
 <desc>BarCode licensed to MEM:TEC-IT Datenverarbeitung GmbH Internal License</desc>
 <g>
  <rect width="1.0583" height="1.0583"/>
  <rect x="1.0583" width="1.0583" height="1.0583"/>
  <rect x="2.1166" width="1.0583" height="1.0583"/>
  <rect x="3.175" width="1.0583" height="1.0583"/>
  <rect x="4.2333" width="1.0583" height="1.0583"/>
  <rect x="5.2916" width="1.0583" height="1.0583"/>
  <rect x="6.3499" width="1.0583" height="1.0583"/>
  <rect x="9.5249" width="1.0583" height="1.0583"/>
  <rect x="14.816" width="1.0583" height="1.0583"/>
  <rect x="16.933" width="1.0583" height="1.0583"/>
  <rect x="19.05" width="1.0583" height="1.0583"/>
  <rect x="20.108" width="1.0583" height="1.0583"/>
  <rect x="21.166" width="1.0583" height="1.0583"/>
  <rect x="22.225" width="1.0583" height="1.0583"/>
  <rect x="23.283" width="1.0583" height="1.0583"/>
  <rect x="24.341" width="1.0583" height="1.0583"/>
  <rect x="25.4" width="1.0583" height="1.0583"/>
  <rect y="1.0583" width="1.0583" height="1.0583"/>
  <rect x="6.3499" y="1.0583" width="1.0583" height="1.0583"/>
  <rect x="8.4666" y="1.0583" width="1.0583" height="1.0583"/>
  <rect x="9.5249" y="1.0583" width="1.0583" height="1.0583"/>
  <rect x="11.642" y="1.0583" width="1.0583" height="1.0583"/>
  <rect x="12.7" y="1.0583" width="1.0583" height="1.0583"/>
  <rect x="14.816" y="1.0583" width="1.0583" height="1.0583"/>
  <rect x="15.875" y="1.0583" width="1.0583" height="1.0583"/>
  <rect x="19.05" y="1.0583" width="1.0583" height="1.0583"/>
  <rect x="25.4" y="1.0583" width="1.0583" height="1.0583"/>
  <rect y="2.1166" width="1.0583" height="1.0583"/>
  <rect x="2.1166" y="2.1166" width="1.0583" height="1.0583"/>
  <rect x="3.175" y="2.1166" width="1.0583" height="1.0583"/>
  <rect x="4.2333" y="2.1166" width="1.0583" height="1.0583"/>
  <rect x="6.3499" y="2.1166" width="1.0583" height="1.0583"/>
  <rect x="9.5249" y="2.1166" width="1.0583" height="1.0583"/>
  <rect x="10.583" y="2.1166" width="1.0583" height="1.0583"/>
  <rect x="11.642" y="2.1166" width="1.0583" height="1.0583"/>
  <rect x="14.816" y="2.1166" width="1.0583" height="1.0583"/>
  <rect x="15.875" y="2.1166" width="1.0583" height="1.0583"/>
  <rect x="19.05" y="2.1166" width="1.0583" height="1.0583"/>
  <rect x="21.166" y="2.1166" width="1.0583" height="1.0583"/>
  <rect x="22.225" y="2.1166" width="1.0583" height="1.0583"/>
  <rect x="23.283" y="2.1166" width="1.0583" height="1.0583"/>
  <rect x="25.4" y="2.1166" width="1.0583" height="1.0583"/>
  <rect y="3.175" width="1.0583" height="1.0583"/>
  <rect x="2.1166" y="3.175" width="1.0583" height="1.0583"/>
  <rect x="3.175" y="3.175" width="1.0583" height="1.0583"/>
  <rect x="4.2333" y="3.175" width="1.0583" height="1.0583"/>
  <rect x="6.3499" y="3.175" width="1.0583" height="1.0583"/>
  <rect x="8.4666" y="3.175" width="1.0583" height="1.0583"/>
  <rect x="9.5249" y="3.175" width="1.0583" height="1.0583"/>
  <rect x="11.642" y="3.175" width="1.0583" height="1.0583"/>
  <rect x="13.758" y="3.175" width="1.0583" height="1.0583"/>
  <rect x="14.816" y="3.175" width="1.0583" height="1.0583"/>
  <rect x="19.05" y="3.175" width="1.0583" height="1.0583"/>
  <rect x="21.166" y="3.175" width="1.0583" height="1.0583"/>
  <rect x="22.225" y="3.175" width="1.0583" height="1.0583"/>
  <rect x="23.283" y="3.175" width="1.0583" height="1.0583"/>
  <rect x="25.4" y="3.175" width="1.0583" height="1.0583"/>
  <rect y="4.2333" width="1.0583" height="1.0583"/>
  <rect x="2.1166" y="4.2333" width="1.0583" height="1.0583"/>
  <rect x="3.175" y="4.2333" width="1.0583" height="1.0583"/>
  <rect x="4.2333" y="4.2333" width="1.0583" height="1.0583"/>
  <rect x="6.3499" y="4.2333" width="1.0583" height="1.0583"/>
  <rect x="10.583" y="4.2333" width="1.0583" height="1.0583"/>
  <rect x="12.7" y="4.2333" width="1.0583" height="1.0583"/>
  <rect x="16.933" y="4.2333" width="1.0583" height="1.0583"/>
  <rect x="19.05" y="4.2333" width="1.0583" height="1.0583"/>
  <rect x="21.166" y="4.2333" width="1.0583" height="1.0583"/>
  <rect x="22.225" y="4.2333" width="1.0583" height="1.0583"/>
  <rect x="23.283" y="4.2333" width="1.0583" height="1.0583"/>
  <rect x="25.4" y="4.2333" width="1.0583" height="1.0583"/>
  <rect y="5.2916" width="1.0583" height="1.0583"/>
  <rect x="6.3499" y="5.2916" width="1.0583" height="1.0583"/>
  <rect x="8.4666" y="5.2916" width="1.0583" height="1.0583"/>
  <rect x="10.583" y="5.2916" width="1.0583" height="1.0583"/>
  <rect x="13.758" y="5.2916" width="1.0583" height="1.0583"/>
  <rect x="15.875" y="5.2916" width="1.0583" height="1.0583"/>
  <rect x="19.05" y="5.2916" width="1.0583" height="1.0583"/>
  <rect x="25.4" y="5.2916" width="1.0583" height="1.0583"/>
  <rect y="6.3499" width="1.0583" height="1.0583"/>
  <rect x="1.0583" y="6.3499" width="1.0583" height="1.0583"/>
  <rect x="2.1166" y="6.3499" width="1.0583" height="1.0583"/>
  <rect x="3.175" y="6.3499" width="1.0583" height="1.0583"/>
  <rect x="4.2333" y="6.3499" width="1.0583" height="1.0583"/>
  <rect x="5.2916" y="6.3499" width="1.0583" height="1.0583"/>
  <rect x="6.3499" y="6.3499" width="1.0583" height="1.0583"/>
  <rect x="8.4666" y="6.3499" width="1.0583" height="1.0583"/>
  <rect x="10.583" y="6.3499" width="1.0583" height="1.0583"/>
  <rect x="12.7" y="6.3499" width="1.0583" height="1.0583"/>
  <rect x="14.816" y="6.3499" width="1.0583" height="1.0583"/>
  <rect x="16.933" y="6.3499" width="1.0583" height="1.0583"/>
  <rect x="19.05" y="6.3499" width="1.0583" height="1.0583"/>
  <rect x="20.108" y="6.3499" width="1.0583" height="1.0583"/>
  <rect x="21.166" y="6.3499" width="1.0583" height="1.0583"/>
  <rect x="22.225" y="6.3499" width="1.0583" height="1.0583"/>
  <rect x="23.283" y="6.3499" width="1.0583" height="1.0583"/>
  <rect x="24.341" y="6.3499" width="1.0583" height="1.0583"/>
  <rect x="25.4" y="6.3499" width="1.0583" height="1.0583"/>
  <rect x="12.7" y="7.4082" width="1.0583" height="1.0583"/>
  <rect x="15.875" y="7.4082" width="1.0583" height="1.0583"/>
  <rect x="16.933" y="7.4082" width="1.0583" height="1.0583"/>
  <rect y="8.4666" width="1.0583" height="1.0583"/>
  <rect x="1.0583" y="8.4666" width="1.0583" height="1.0583"/>
  <rect x="2.1166" y="8.4666" width="1.0583" height="1.0583"/>
  <rect x="3.175" y="8.4666" width="1.0583" height="1.0583"/>
  <rect x="4.2333" y="8.4666" width="1.0583" height="1.0583"/>
  <rect x="6.3499" y="8.4666" width="1.0583" height="1.0583"/>
  <rect x="7.4082" y="8.4666" width="1.0583" height="1.0583"/>
  <rect x="8.4666" y="8.4666" width="1.0583" height="1.0583"/>
  <rect x="9.5249" y="8.4666" width="1.0583" height="1.0583"/>
  <rect x="10.583" y="8.4666" width="1.0583" height="1.0583"/>
  <rect x="12.7" y="8.4666" width="1.0583" height="1.0583"/>
  <rect x="13.758" y="8.4666" width="1.0583" height="1.0583"/>
  <rect x="15.875" y="8.4666" width="1.0583" height="1.0583"/>
  <rect x="16.933" y="8.4666" width="1.0583" height="1.0583"/>
  <rect x="17.991" y="8.4666" width="1.0583" height="1.0583"/>
  <rect x="20.108" y="8.4666" width="1.0583" height="1.0583"/>
  <rect x="22.225" y="8.4666" width="1.0583" height="1.0583"/>
  <rect x="24.341" y="8.4666" width="1.0583" height="1.0583"/>
  <rect y="9.5249" width="1.0583" height="1.0583"/>
  <rect x="3.175" y="9.5249" width="1.0583" height="1.0583"/>
  <rect x="5.2916" y="9.5249" width="1.0583" height="1.0583"/>
  <rect x="9.5249" y="9.5249" width="1.0583" height="1.0583"/>
  <rect x="13.758" y="9.5249" width="1.0583" height="1.0583"/>
  <rect x="16.933" y="9.5249" width="1.0583" height="1.0583"/>
  <rect x="20.108" y="9.5249" width="1.0583" height="1.0583"/>
  <rect x="24.341" y="9.5249" width="1.0583" height="1.0583"/>
  <rect x="2.1166" y="10.583" width="1.0583" height="1.0583"/>
  <rect x="3.175" y="10.583" width="1.0583" height="1.0583"/>
  <rect x="5.2916" y="10.583" width="1.0583" height="1.0583"/>
  <rect x="6.3499" y="10.583" width="1.0583" height="1.0583"/>
  <rect x="7.4082" y="10.583" width="1.0583" height="1.0583"/>
  <rect x="8.4666" y="10.583" width="1.0583" height="1.0583"/>
  <rect x="9.5249" y="10.583" width="1.0583" height="1.0583"/>
  <rect x="11.642" y="10.583" width="1.0583" height="1.0583"/>
  <rect x="12.7" y="10.583" width="1.0583" height="1.0583"/>
  <rect x="13.758" y="10.583" width="1.0583" height="1.0583"/>
  <rect x="14.816" y="10.583" width="1.0583" height="1.0583"/>
  <rect x="15.875" y="10.583" width="1.0583" height="1.0583"/>
  <rect x="16.933" y="10.583" width="1.0583" height="1.0583"/>
  <rect x="17.991" y="10.583" width="1.0583" height="1.0583"/>
  <rect x="19.05" y="10.583" width="1.0583" height="1.0583"/>
  <rect x="21.166" y="10.583" width="1.0583" height="1.0583"/>
  <rect x="22.225" y="10.583" width="1.0583" height="1.0583"/>
  <rect x="24.341" y="10.583" width="1.0583" height="1.0583"/>
  <rect x="25.4" y="10.583" width="1.0583" height="1.0583"/>
  <rect x="4.2333" y="11.642" width="1.0583" height="1.0583"/>
  <rect x="8.4666" y="11.642" width="1.0583" height="1.0583"/>
  <rect x="9.5249" y="11.642" width="1.0583" height="1.0583"/>
  <rect x="10.583" y="11.642" width="1.0583" height="1.0583"/>
  <rect x="11.642" y="11.642" width="1.0583" height="1.0583"/>
  <rect x="15.875" y="11.642" width="1.0583" height="1.0583"/>
  <rect x="17.991" y="11.642" width="1.0583" height="1.0583"/>
  <rect x="19.05" y="11.642" width="1.0583" height="1.0583"/>
  <rect x="25.4" y="11.642" width="1.0583" height="1.0583"/>
  <rect y="12.7" width="1.0583" height="1.0583"/>
  <rect x="1.0583" y="12.7" width="1.0583" height="1.0583"/>
  <rect x="3.175" y="12.7" width="1.0583" height="1.0583"/>
  <rect x="4.2333" y="12.7" width="1.0583" height="1.0583"/>
  <rect x="5.2916" y="12.7" width="1.0583" height="1.0583"/>
  <rect x="6.3499" y="12.7" width="1.0583" height="1.0583"/>
  <rect x="8.4666" y="12.7" width="1.0583" height="1.0583"/>
  <rect x="9.5249" y="12.7" width="1.0583" height="1.0583"/>
  <rect x="11.642" y="12.7" width="1.0583" height="1.0583"/>
  <rect x="13.758" y="12.7" width="1.0583" height="1.0583"/>
  <rect x="14.816" y="12.7" width="1.0583" height="1.0583"/>
  <rect x="17.991" y="12.7" width="1.0583" height="1.0583"/>
  <rect x="19.05" y="12.7" width="1.0583" height="1.0583"/>
  <rect x="20.108" y="12.7" width="1.0583" height="1.0583"/>
  <rect x="21.166" y="12.7" width="1.0583" height="1.0583"/>
  <rect x="23.283" y="12.7" width="1.0583" height="1.0583"/>
  <rect x="24.341" y="12.7" width="1.0583" height="1.0583"/>
  <rect x="25.4" y="12.7" width="1.0583" height="1.0583"/>
  <rect y="13.758" width="1.0583" height="1.0583"/>
  <rect x="1.0583" y="13.758" width="1.0583" height="1.0583"/>
  <rect x="2.1166" y="13.758" width="1.0583" height="1.0583"/>
  <rect x="3.175" y="13.758" width="1.0583" height="1.0583"/>
  <rect x="4.2333" y="13.758" width="1.0583" height="1.0583"/>
  <rect x="10.583" y="13.758" width="1.0583" height="1.0583"/>
  <rect x="12.7" y="13.758" width="1.0583" height="1.0583"/>
  <rect x="13.758" y="13.758" width="1.0583" height="1.0583"/>
  <rect x="16.933" y="13.758" width="1.0583" height="1.0583"/>
  <rect x="17.991" y="13.758" width="1.0583" height="1.0583"/>
  <rect x="20.108" y="13.758" width="1.0583" height="1.0583"/>
  <rect x="22.225" y="13.758" width="1.0583" height="1.0583"/>
  <rect x="24.341" y="13.758" width="1.0583" height="1.0583"/>
  <rect y="14.816" width="1.0583" height="1.0583"/>
  <rect x="2.1166" y="14.816" width="1.0583" height="1.0583"/>
  <rect x="3.175" y="14.816" width="1.0583" height="1.0583"/>
  <rect x="4.2333" y="14.816" width="1.0583" height="1.0583"/>
  <rect x="6.3499" y="14.816" width="1.0583" height="1.0583"/>
  <rect x="7.4082" y="14.816" width="1.0583" height="1.0583"/>
  <rect x="10.583" y="14.816" width="1.0583" height="1.0583"/>
  <rect x="15.875" y="14.816" width="1.0583" height="1.0583"/>
  <rect x="16.933" y="14.816" width="1.0583" height="1.0583"/>
  <rect x="19.05" y="14.816" width="1.0583" height="1.0583"/>
  <rect x="20.108" y="14.816" width="1.0583" height="1.0583"/>
  <rect x="21.166" y="14.816" width="1.0583" height="1.0583"/>
  <rect x="22.225" y="14.816" width="1.0583" height="1.0583"/>
  <rect x="24.341" y="14.816" width="1.0583" height="1.0583"/>
  <rect x="25.4" y="14.816" width="1.0583" height="1.0583"/>
  <rect y="15.875" width="1.0583" height="1.0583"/>
  <rect x="10.583" y="15.875" width="1.0583" height="1.0583"/>
  <rect x="12.7" y="15.875" width="1.0583" height="1.0583"/>
  <rect x="14.816" y="15.875" width="1.0583" height="1.0583"/>
  <rect x="16.933" y="15.875" width="1.0583" height="1.0583"/>
  <rect x="17.991" y="15.875" width="1.0583" height="1.0583"/>
  <rect x="19.05" y="15.875" width="1.0583" height="1.0583"/>
  <rect x="20.108" y="15.875" width="1.0583" height="1.0583"/>
  <rect x="21.166" y="15.875" width="1.0583" height="1.0583"/>
  <rect x="25.4" y="15.875" width="1.0583" height="1.0583"/>
  <rect y="16.933" width="1.0583" height="1.0583"/>
  <rect x="3.175" y="16.933" width="1.0583" height="1.0583"/>
  <rect x="5.2916" y="16.933" width="1.0583" height="1.0583"/>
  <rect x="6.3499" y="16.933" width="1.0583" height="1.0583"/>
  <rect x="7.4082" y="16.933" width="1.0583" height="1.0583"/>
  <rect x="8.4666" y="16.933" width="1.0583" height="1.0583"/>
  <rect x="9.5249" y="16.933" width="1.0583" height="1.0583"/>
  <rect x="12.7" y="16.933" width="1.0583" height="1.0583"/>
  <rect x="13.758" y="16.933" width="1.0583" height="1.0583"/>
  <rect x="14.816" y="16.933" width="1.0583" height="1.0583"/>
  <rect x="15.875" y="16.933" width="1.0583" height="1.0583"/>
  <rect x="16.933" y="16.933" width="1.0583" height="1.0583"/>
  <rect x="17.991" y="16.933" width="1.0583" height="1.0583"/>
  <rect x="19.05" y="16.933" width="1.0583" height="1.0583"/>
  <rect x="20.108" y="16.933" width="1.0583" height="1.0583"/>
  <rect x="21.166" y="16.933" width="1.0583" height="1.0583"/>
  <rect x="23.283" y="16.933" width="1.0583" height="1.0583"/>
  <rect x="8.4666" y="17.991" width="1.0583" height="1.0583"/>
  <rect x="9.5249" y="17.991" width="1.0583" height="1.0583"/>
  <rect x="13.758" y="17.991" width="1.0583" height="1.0583"/>
  <rect x="15.875" y="17.991" width="1.0583" height="1.0583"/>
  <rect x="16.933" y="17.991" width="1.0583" height="1.0583"/>
  <rect x="21.166" y="17.991" width="1.0583" height="1.0583"/>
  <rect x="22.225" y="17.991" width="1.0583" height="1.0583"/>
  <rect y="19.05" width="1.0583" height="1.0583"/>
  <rect x="1.0583" y="19.05" width="1.0583" height="1.0583"/>
  <rect x="2.1166" y="19.05" width="1.0583" height="1.0583"/>
  <rect x="3.175" y="19.05" width="1.0583" height="1.0583"/>
  <rect x="4.2333" y="19.05" width="1.0583" height="1.0583"/>
  <rect x="5.2916" y="19.05" width="1.0583" height="1.0583"/>
  <rect x="6.3499" y="19.05" width="1.0583" height="1.0583"/>
  <rect x="8.4666" y="19.05" width="1.0583" height="1.0583"/>
  <rect x="10.583" y="19.05" width="1.0583" height="1.0583"/>
  <rect x="11.642" y="19.05" width="1.0583" height="1.0583"/>
  <rect x="12.7" y="19.05" width="1.0583" height="1.0583"/>
  <rect x="13.758" y="19.05" width="1.0583" height="1.0583"/>
  <rect x="14.816" y="19.05" width="1.0583" height="1.0583"/>
  <rect x="16.933" y="19.05" width="1.0583" height="1.0583"/>
  <rect x="19.05" y="19.05" width="1.0583" height="1.0583"/>
  <rect x="21.166" y="19.05" width="1.0583" height="1.0583"/>
  <rect x="23.283" y="19.05" width="1.0583" height="1.0583"/>
  <rect x="24.341" y="19.05" width="1.0583" height="1.0583"/>
  <rect x="25.4" y="19.05" width="1.0583" height="1.0583"/>
  <rect y="20.108" width="1.0583" height="1.0583"/>
  <rect x="6.3499" y="20.108" width="1.0583" height="1.0583"/>
  <rect x="10.583" y="20.108" width="1.0583" height="1.0583"/>
  <rect x="11.642" y="20.108" width="1.0583" height="1.0583"/>
  <rect x="14.816" y="20.108" width="1.0583" height="1.0583"/>
  <rect x="16.933" y="20.108" width="1.0583" height="1.0583"/>
  <rect x="21.166" y="20.108" width="1.0583" height="1.0583"/>
  <rect x="22.225" y="20.108" width="1.0583" height="1.0583"/>
  <rect y="21.166" width="1.0583" height="1.0583"/>
  <rect x="2.1166" y="21.166" width="1.0583" height="1.0583"/>
  <rect x="3.175" y="21.166" width="1.0583" height="1.0583"/>
  <rect x="4.2333" y="21.166" width="1.0583" height="1.0583"/>
  <rect x="6.3499" y="21.166" width="1.0583" height="1.0583"/>
  <rect x="8.4666" y="21.166" width="1.0583" height="1.0583"/>
  <rect x="9.5249" y="21.166" width="1.0583" height="1.0583"/>
  <rect x="11.642" y="21.166" width="1.0583" height="1.0583"/>
  <rect x="15.875" y="21.166" width="1.0583" height="1.0583"/>
  <rect x="16.933" y="21.166" width="1.0583" height="1.0583"/>
  <rect x="17.991" y="21.166" width="1.0583" height="1.0583"/>
  <rect x="19.05" y="21.166" width="1.0583" height="1.0583"/>
  <rect x="20.108" y="21.166" width="1.0583" height="1.0583"/>
  <rect x="21.166" y="21.166" width="1.0583" height="1.0583"/>
  <rect x="23.283" y="21.166" width="1.0583" height="1.0583"/>
  <rect x="24.341" y="21.166" width="1.0583" height="1.0583"/>
  <rect x="25.4" y="21.166" width="1.0583" height="1.0583"/>
  <rect y="22.225" width="1.0583" height="1.0583"/>
  <rect x="2.1166" y="22.225" width="1.0583" height="1.0583"/>
  <rect x="3.175" y="22.225" width="1.0583" height="1.0583"/>
  <rect x="4.2333" y="22.225" width="1.0583" height="1.0583"/>
  <rect x="6.3499" y="22.225" width="1.0583" height="1.0583"/>
  <rect x="8.4666" y="22.225" width="1.0583" height="1.0583"/>
  <rect x="9.5249" y="22.225" width="1.0583" height="1.0583"/>
  <rect x="12.7" y="22.225" width="1.0583" height="1.0583"/>
  <rect x="13.758" y="22.225" width="1.0583" height="1.0583"/>
  <rect x="15.875" y="22.225" width="1.0583" height="1.0583"/>
  <rect x="16.933" y="22.225" width="1.0583" height="1.0583"/>
  <rect x="17.991" y="22.225" width="1.0583" height="1.0583"/>
  <rect x="19.05" y="22.225" width="1.0583" height="1.0583"/>
  <rect x="21.166" y="22.225" width="1.0583" height="1.0583"/>
  <rect x="22.225" y="22.225" width="1.0583" height="1.0583"/>
  <rect x="23.283" y="22.225" width="1.0583" height="1.0583"/>
  <rect x="24.341" y="22.225" width="1.0583" height="1.0583"/>
  <rect x="25.4" y="22.225" width="1.0583" height="1.0583"/>
  <rect y="23.283" width="1.0583" height="1.0583"/>
  <rect x="2.1166" y="23.283" width="1.0583" height="1.0583"/>
  <rect x="3.175" y="23.283" width="1.0583" height="1.0583"/>
  <rect x="4.2333" y="23.283" width="1.0583" height="1.0583"/>
  <rect x="6.3499" y="23.283" width="1.0583" height="1.0583"/>
  <rect x="8.4666" y="23.283" width="1.0583" height="1.0583"/>
  <rect x="13.758" y="23.283" width="1.0583" height="1.0583"/>
  <rect x="14.816" y="23.283" width="1.0583" height="1.0583"/>
  <rect x="16.933" y="23.283" width="1.0583" height="1.0583"/>
  <rect x="17.991" y="23.283" width="1.0583" height="1.0583"/>
  <rect x="22.225" y="23.283" width="1.0583" height="1.0583"/>
  <rect x="23.283" y="23.283" width="1.0583" height="1.0583"/>
  <rect x="25.4" y="23.283" width="1.0583" height="1.0583"/>
  <rect y="24.341" width="1.0583" height="1.0583"/>
  <rect x="6.3499" y="24.341" width="1.0583" height="1.0583"/>
  <rect x="8.4666" y="24.341" width="1.0583" height="1.0583"/>
  <rect x="12.7" y="24.341" width="1.0583" height="1.0583"/>
  <rect x="13.758" y="24.341" width="1.0583" height="1.0583"/>
  <rect x="15.875" y="24.341" width="1.0583" height="1.0583"/>
  <rect x="16.933" y="24.341" width="1.0583" height="1.0583"/>
  <rect x="19.05" y="24.341" width="1.0583" height="1.0583"/>
  <rect x="20.108" y="24.341" width="1.0583" height="1.0583"/>
  <rect x="21.166" y="24.341" width="1.0583" height="1.0583"/>
  <rect x="22.225" y="24.341" width="1.0583" height="1.0583"/>
  <rect x="25.4" y="24.341" width="1.0583" height="1.0583"/>
  <rect y="25.4" width="1.0583" height="1.0583"/>
  <rect x="1.0583" y="25.4" width="1.0583" height="1.0583"/>
  <rect x="2.1166" y="25.4" width="1.0583" height="1.0583"/>
  <rect x="3.175" y="25.4" width="1.0583" height="1.0583"/>
  <rect x="4.2333" y="25.4" width="1.0583" height="1.0583"/>
  <rect x="5.2916" y="25.4" width="1.0583" height="1.0583"/>
  <rect x="6.3499" y="25.4" width="1.0583" height="1.0583"/>
  <rect x="8.4666" y="25.4" width="1.0583" height="1.0583"/>
  <rect x="9.5249" y="25.4" width="1.0583" height="1.0583"/>
  <rect x="10.583" y="25.4" width="1.0583" height="1.0583"/>
  <rect x="12.7" y="25.4" width="1.0583" height="1.0583"/>
  <rect x="14.816" y="25.4" width="1.0583" height="1.0583"/>
  <rect x="15.875" y="25.4" width="1.0583" height="1.0583"/>
  <rect x="20.108" y="25.4" width="1.0583" height="1.0583"/>
  <rect x="21.166" y="25.4" width="1.0583" height="1.0583"/>
  <rect x="22.225" y="25.4" width="1.0583" height="1.0583"/>
  <rect x="23.283" y="25.4" width="1.0583" height="1.0583"/>
  <rect x="24.341" y="25.4" width="1.0583" height="1.0583"/>
  <rect x="25.4" y="25.4" width="1.0583" height="1.0583"/>
 </g>
</svg>
